<mxfile host="app.diagrams.net" modified="2023-10-12T07:07:06.679Z" agent="Mozilla/5.0 (Windows NT 10.0; Win64; x64) AppleWebKit/537.36 (KHTML, like Gecko) Chrome/117.0.0.0 Safari/537.36" version="22.0.4" etag="6t0RkTafpx-o_u5tmiH6" type="github">
  <diagram name="第 1 页" id="9mdBt2A5E5MHPoM7-pv9">
    <mxGraphModel>
      <root>
        <mxCell id="0" />
        <mxCell id="1" parent="0" />
      </root>
    </mxGraphModel>
  </diagram>
</mxfile>
